<svg width="16" height="16" viewBox="0 0 16 16" fill="none" xmlns="http://www.w3.org/2000/svg">
<g clip-path="url(#clip0_716_78409)">
<path d="M12 2.66675H4C3.26362 2.66675 2.66667 3.2637 2.66667 4.00008V12.0001C2.66667 12.7365 3.26362 13.3334 4 13.3334H12C12.7364 13.3334 13.3333 12.7365 13.3333 12.0001V4.00008C13.3333 3.2637 12.7364 2.66675 12 2.66675Z" stroke="black" stroke-linecap="round" stroke-linejoin="round"/>
<path d="M10 6H6V10H10V6Z" stroke="black" stroke-linecap="round" stroke-linejoin="round"/>
<path d="M6 0.666748V2.66675" stroke="black" stroke-linecap="round" stroke-linejoin="round"/>
<path d="M10 0.666748V2.66675" stroke="black" stroke-linecap="round" stroke-linejoin="round"/>
<path d="M6 13.3333V15.3333" stroke="black" stroke-linecap="round" stroke-linejoin="round"/>
<path d="M10 13.3333V15.3333" stroke="black" stroke-linecap="round" stroke-linejoin="round"/>
<path d="M13.3333 6H15.3333" stroke="black" stroke-linecap="round" stroke-linejoin="round"/>
<path d="M13 9H15" stroke="black" stroke-linecap="round" stroke-linejoin="round"/>
<path d="M0.666668 6H2.66667" stroke="#002855" stroke-linecap="round" stroke-linejoin="round"/>
<path d="M0.666668 9.33325H2.66667" stroke="#002855" stroke-linecap="round" stroke-linejoin="round"/>
</g>
<defs>
<clipPath id="clip0_716_78409">
<rect width="16" height="16" fill="white"/>
</clipPath>
</defs>
</svg>
