<svg width="16" height="16" viewBox="0 0 16 16" fill="none" xmlns="http://www.w3.org/2000/svg">
<path d="M14 10.332V4.99863C13.9998 4.76482 13.938 4.53517 13.821 4.33274C13.704 4.13031 13.5358 3.96221 13.3333 3.8453L8.66667 1.17863C8.46397 1.06161 8.23405 1 8 1C7.76595 1 7.53603 1.06161 7.33333 1.17863L2.66667 3.8453C2.46418 3.96221 2.29599 4.13031 2.17897 4.33274C2.06196 4.53517 2.00024 4.76482 2 4.99863V10.332C2.00024 10.5658 2.06196 10.7954 2.17897 10.9979C2.29599 11.2003 2.46418 11.3684 2.66667 11.4853L7.33333 14.152C7.53603 14.269 7.76595 14.3306 8 14.3306C8.23405 14.3306 8.46397 14.269 8.66667 14.152L13.3333 11.4853C13.5358 11.3684 13.704 11.2003 13.821 10.9979C13.938 10.7954 13.9998 10.5658 14 10.332Z" stroke="#002855" stroke-linecap="round" stroke-linejoin="round"/>
<path d="M2.17993 4.64001L7.99993 8.00668L13.8199 4.64001" stroke="#002855" stroke-linecap="round" stroke-linejoin="round"/>
<path d="M8 14.72V8" stroke="#002855" stroke-linecap="round" stroke-linejoin="round"/>
</svg>
