<svg width="16" height="14" viewBox="0 0 16 14" fill="none" xmlns="http://www.w3.org/2000/svg">
<path d="M13.8609 1.9974C13.5204 1.65674 13.1161 1.3865 12.6711 1.20212C12.2261 1.01775 11.7492 0.922852 11.2675 0.922852C10.7859 0.922852 10.3089 1.01775 9.86396 1.20212C9.41898 1.3865 9.0147 1.65674 8.67419 1.9974L7.96753 2.70407L7.26086 1.9974C6.57307 1.30961 5.64022 0.923208 4.66753 0.923208C3.69484 0.923208 2.76199 1.30961 2.07419 1.9974C1.3864 2.6852 1 3.61805 1 4.59073C1 5.56342 1.3864 6.49627 2.07419 7.18407L2.78086 7.89073L7.96753 13.0774L13.1542 7.89073L13.8609 7.18407C14.2015 6.84356 14.4718 6.43928 14.6561 5.99431C14.8405 5.54933 14.9354 5.07239 14.9354 4.59073C14.9354 4.10908 14.8405 3.63214 14.6561 3.18717C14.4718 2.74219 14.2015 2.33791 13.8609 1.9974Z" stroke="#828282" stroke-linecap="round" stroke-linejoin="round"/>
</svg>
