<svg width="14" height="14" viewBox="0 0 14 14" fill="none" xmlns="http://www.w3.org/2000/svg">
<path d="M13.2537 6.66669C13.256 7.5466 13.0504 8.41461 12.6537 9.20002C12.1833 10.1412 11.4602 10.9328 10.5654 11.4862C9.67049 12.0396 8.63922 12.3329 7.58706 12.3334C6.70714 12.3356 5.83913 12.1301 5.05372 11.7334L1.25372 13L2.52039 9.20002C2.12368 8.41461 1.9181 7.5466 1.92039 6.66669C1.9208 5.61452 2.21413 4.58325 2.76754 3.68839C3.32094 2.79352 4.11256 2.0704 5.05372 1.60002C5.83913 1.20331 6.70714 0.997725 7.58706 1.00002H7.92039C9.30996 1.07668 10.6224 1.66319 11.6065 2.64726C12.5905 3.63132 13.1771 4.94379 13.2537 6.33335V6.66669Z" stroke="#828282" stroke-linecap="round" stroke-linejoin="round"/>
</svg>
