<svg width="550" height="469" viewBox="0 0 550 469" fill="none" xmlns="http://www.w3.org/2000/svg">
<rect width="550" height="470" rx="10" fill="#D8D8D8"/>
<path d="M409.778 320.111C409.778 326.712 407.156 333.043 402.488 337.71C397.82 342.378 391.49 345 384.889 345H160.889C154.288 345 147.957 342.378 143.29 337.71C138.622 333.043 136 326.712 136 320.111V183.222C136 176.621 138.622 170.291 143.29 165.623C147.957 160.956 154.288 158.333 160.889 158.333H210.667L235.556 121H310.222L335.111 158.333H384.889C391.49 158.333 397.82 160.956 402.488 165.623C407.156 170.291 409.778 176.621 409.778 183.222V320.111Z" stroke="#828282" stroke-width="5" stroke-linecap="round" stroke-linejoin="round"/>
<path d="M272.889 295.223C300.38 295.223 322.667 272.936 322.667 245.445C322.667 217.953 300.38 195.667 272.889 195.667C245.397 195.667 223.111 217.953 223.111 245.445C223.111 272.936 245.397 295.223 272.889 295.223Z" stroke="#828282" stroke-width="5" stroke-linecap="round" stroke-linejoin="round"/>
<path d="M142.821 391H140.721V385.199H134.797V391H132.688V378.15H134.797V383.406H140.721V378.15H142.821V391ZM149.888 381.086C150.755 381.086 151.499 381.265 152.12 381.622C152.741 381.979 153.219 382.486 153.553 383.143C153.887 383.799 154.054 384.584 154.054 385.498V386.605H147.559C147.582 387.549 147.834 388.275 148.314 388.785C148.801 389.295 149.48 389.55 150.354 389.55C150.975 389.55 151.531 389.491 152.023 389.374C152.521 389.251 153.034 389.072 153.562 388.838V390.517C153.075 390.745 152.58 390.912 152.076 391.018C151.572 391.123 150.969 391.176 150.266 391.176C149.311 391.176 148.47 390.991 147.743 390.622C147.022 390.247 146.457 389.69 146.047 388.952C145.643 388.214 145.44 387.297 145.44 386.201C145.44 385.111 145.625 384.186 145.994 383.424C146.363 382.662 146.882 382.082 147.55 381.684C148.218 381.285 148.997 381.086 149.888 381.086ZM149.888 382.642C149.237 382.642 148.71 382.853 148.306 383.274C147.907 383.696 147.673 384.314 147.603 385.129H152.032C152.026 384.643 151.944 384.212 151.786 383.837C151.634 383.462 151.399 383.169 151.083 382.958C150.772 382.747 150.374 382.642 149.888 382.642ZM163.73 382.896H160.531V391H158.475V382.896H155.293V381.271H163.73V382.896ZM178.232 381.271V389.4H179.639V394.428H177.731V391H171.017V394.428H169.109V389.4H169.9C170.393 388.686 170.803 387.889 171.131 387.01C171.465 386.131 171.723 385.205 171.904 384.232C172.092 383.254 172.209 382.267 172.256 381.271H178.232ZM176.185 382.853H174.031C173.961 383.644 173.841 384.432 173.671 385.217C173.501 385.996 173.281 386.743 173.012 387.458C172.748 388.167 172.432 388.814 172.062 389.4H176.185V382.853ZM190.062 386.113C190.062 386.922 189.957 387.64 189.746 388.267C189.535 388.894 189.228 389.424 188.823 389.857C188.419 390.285 187.933 390.613 187.364 390.842C186.796 391.064 186.154 391.176 185.439 391.176C184.771 391.176 184.159 391.064 183.603 390.842C183.046 390.613 182.562 390.285 182.152 389.857C181.748 389.424 181.435 388.894 181.212 388.267C180.989 387.64 180.878 386.922 180.878 386.113C180.878 385.041 181.062 384.133 181.432 383.389C181.807 382.639 182.34 382.067 183.031 381.675C183.723 381.282 184.546 381.086 185.501 381.086C186.397 381.086 187.188 381.282 187.874 381.675C188.56 382.067 189.096 382.639 189.482 383.389C189.869 384.139 190.062 385.047 190.062 386.113ZM183.005 386.113C183.005 386.822 183.09 387.429 183.26 387.933C183.436 388.437 183.705 388.823 184.068 389.093C184.432 389.356 184.9 389.488 185.475 389.488C186.049 389.488 186.518 389.356 186.881 389.093C187.244 388.823 187.511 388.437 187.681 387.933C187.851 387.429 187.936 386.822 187.936 386.113C187.936 385.404 187.851 384.804 187.681 384.312C187.511 383.813 187.244 383.436 186.881 383.178C186.518 382.914 186.046 382.782 185.466 382.782C184.61 382.782 183.986 383.069 183.594 383.644C183.201 384.218 183.005 385.041 183.005 386.113ZM191.882 385.164C191.882 383.752 192.037 382.551 192.348 381.561C192.658 380.57 193.147 379.776 193.815 379.179C194.483 378.581 195.351 378.174 196.417 377.957C197.108 377.799 197.812 377.664 198.526 377.553C199.241 377.441 199.956 377.333 200.671 377.228L200.952 379.047C200.618 379.088 200.261 379.138 199.88 379.196C199.499 379.249 199.115 379.305 198.729 379.363C198.348 379.422 197.981 379.483 197.63 379.548C197.284 379.606 196.974 379.665 196.698 379.724C196.147 379.841 195.682 380.034 195.301 380.304C194.926 380.567 194.633 380.954 194.422 381.464C194.211 381.974 194.085 382.653 194.044 383.503H194.158C194.316 383.263 194.536 383.022 194.817 382.782C195.099 382.542 195.438 382.343 195.837 382.185C196.241 382.021 196.701 381.938 197.217 381.938C198.025 381.938 198.711 382.108 199.273 382.448C199.842 382.788 200.272 383.28 200.565 383.925C200.864 384.569 201.014 385.346 201.014 386.254C201.014 387.338 200.82 388.246 200.434 388.979C200.053 389.705 199.52 390.253 198.834 390.622C198.148 390.991 197.349 391.176 196.435 391.176C195.731 391.176 195.099 391.044 194.536 390.78C193.979 390.517 193.502 390.13 193.104 389.62C192.711 389.104 192.409 388.475 192.198 387.73C191.987 386.98 191.882 386.125 191.882 385.164ZM196.575 389.479C197.044 389.479 197.448 389.38 197.788 389.181C198.134 388.981 198.4 388.659 198.588 388.214C198.781 387.769 198.878 387.18 198.878 386.447C198.878 385.545 198.714 384.836 198.386 384.32C198.063 383.799 197.53 383.538 196.786 383.538C196.329 383.538 195.91 383.641 195.529 383.846C195.148 384.051 194.826 384.291 194.562 384.566C194.299 384.836 194.111 385.073 194 385.278C194 385.812 194.038 386.327 194.114 386.825C194.196 387.323 194.331 387.774 194.519 388.179C194.712 388.577 194.976 388.894 195.31 389.128C195.644 389.362 196.065 389.479 196.575 389.479ZM207.201 381.086C208.432 381.086 209.36 381.358 209.987 381.903C210.62 382.448 210.937 383.298 210.937 384.452V391H209.469L209.073 389.62H209.003C208.728 389.972 208.443 390.262 208.15 390.49C207.857 390.719 207.518 390.889 207.131 391C206.75 391.117 206.284 391.176 205.733 391.176C205.153 391.176 204.635 391.07 204.178 390.859C203.721 390.643 203.36 390.314 203.097 389.875C202.833 389.436 202.701 388.879 202.701 388.205C202.701 387.203 203.073 386.45 203.817 385.946C204.567 385.442 205.698 385.164 207.21 385.111L208.897 385.05V384.54C208.897 383.866 208.739 383.386 208.423 383.099C208.112 382.812 207.673 382.668 207.104 382.668C206.618 382.668 206.146 382.738 205.689 382.879C205.232 383.02 204.787 383.192 204.354 383.397L203.686 381.938C204.16 381.687 204.699 381.481 205.303 381.323C205.912 381.165 206.545 381.086 207.201 381.086ZM208.889 386.351L207.632 386.395C206.601 386.43 205.877 386.605 205.461 386.922C205.045 387.238 204.837 387.672 204.837 388.223C204.837 388.703 204.98 389.055 205.268 389.277C205.555 389.494 205.933 389.603 206.401 389.603C207.116 389.603 207.708 389.4 208.177 388.996C208.651 388.586 208.889 387.985 208.889 387.194V386.351ZM222.011 383.767C222.011 384.329 221.838 384.789 221.492 385.146C221.152 385.498 220.684 385.729 220.086 385.841V385.911C220.725 385.993 221.258 386.219 221.686 386.588C222.113 386.957 222.327 387.47 222.327 388.126C222.327 388.683 222.187 389.178 221.905 389.611C221.63 390.039 221.19 390.379 220.587 390.631C219.989 390.877 219.207 391 218.24 391H213.828V381.271H218.223C218.949 381.271 219.597 381.35 220.165 381.508C220.739 381.666 221.19 381.927 221.519 382.29C221.847 382.653 222.011 383.146 222.011 383.767ZM220.174 388.056C220.174 387.575 219.989 387.229 219.62 387.019C219.257 386.808 218.724 386.702 218.021 386.702H215.902V389.479H218.064C218.721 389.479 219.236 389.371 219.611 389.154C219.986 388.932 220.174 388.565 220.174 388.056ZM219.91 383.951C219.91 383.57 219.767 383.289 219.479 383.107C219.192 382.92 218.741 382.826 218.126 382.826H215.902V385.182H217.845C218.524 385.182 219.037 385.085 219.383 384.892C219.734 384.692 219.91 384.379 219.91 383.951ZM232.663 391H230.58V382.888H227.882C227.765 384.364 227.618 385.627 227.442 386.676C227.267 387.725 227.047 388.58 226.783 389.242C226.52 389.898 226.194 390.379 225.808 390.684C225.421 390.988 224.955 391.141 224.41 391.141C224.17 391.141 223.953 391.123 223.76 391.088C223.566 391.059 223.394 391.012 223.241 390.947V389.321C223.341 389.356 223.449 389.386 223.566 389.409C223.684 389.433 223.804 389.444 223.927 389.444C224.144 389.444 224.343 389.356 224.524 389.181C224.712 388.999 224.885 388.715 225.043 388.328C225.201 387.941 225.345 387.432 225.474 386.799C225.603 386.16 225.72 385.387 225.825 384.479C225.931 383.564 226.024 382.495 226.106 381.271H232.663V391ZM239.501 381.086C240.368 381.086 241.112 381.265 241.733 381.622C242.354 381.979 242.832 382.486 243.166 383.143C243.5 383.799 243.667 384.584 243.667 385.498V386.605H237.172C237.195 387.549 237.447 388.275 237.928 388.785C238.414 389.295 239.094 389.55 239.967 389.55C240.588 389.55 241.145 389.491 241.637 389.374C242.135 389.251 242.647 389.072 243.175 388.838V390.517C242.688 390.745 242.193 390.912 241.689 391.018C241.186 391.123 240.582 391.176 239.879 391.176C238.924 391.176 238.083 390.991 237.356 390.622C236.636 390.247 236.07 389.69 235.66 388.952C235.256 388.214 235.054 387.297 235.054 386.201C235.054 385.111 235.238 384.186 235.607 383.424C235.977 382.662 236.495 382.082 237.163 381.684C237.831 381.285 238.61 381.086 239.501 381.086ZM239.501 382.642C238.851 382.642 238.323 382.853 237.919 383.274C237.521 383.696 237.286 384.314 237.216 385.129H241.646C241.64 384.643 241.558 384.212 241.399 383.837C241.247 383.462 241.013 383.169 240.696 382.958C240.386 382.747 239.987 382.642 239.501 382.642ZM248.07 381.271V385.182H252.623V381.271H254.697V391H252.623V386.799H248.07V391H245.996V381.271H248.07ZM259.725 381.271V385.182H264.277V381.271H266.352V391H264.277V386.799H259.725V391H257.65V381.271H259.725ZM269.305 391V381.271H271.379V385.155H273.339C274.253 385.155 275.006 385.261 275.598 385.472C276.189 385.677 276.629 385.987 276.916 386.403C277.203 386.819 277.347 387.341 277.347 387.968C277.347 388.583 277.209 389.119 276.934 389.576C276.658 390.027 276.228 390.379 275.642 390.631C275.056 390.877 274.288 391 273.339 391H269.305ZM271.379 389.479H273.198C273.819 389.479 274.32 389.368 274.701 389.146C275.088 388.917 275.281 388.542 275.281 388.021C275.281 387.534 275.103 387.191 274.745 386.992C274.394 386.787 273.878 386.685 273.198 386.685H271.379V389.479ZM278.85 391V381.271H280.924V391H278.85ZM286.03 386.025L282.778 381.271H285.134L287.357 384.689L289.59 381.271H291.937L288.667 386.025L292.104 391H289.739L287.357 387.353L284.967 391H282.62L286.03 386.025ZM304.856 377.324V381.174C305.899 381.262 306.793 381.52 307.537 381.947C308.281 382.369 308.853 382.935 309.251 383.644C309.649 384.353 309.849 385.182 309.849 386.131C309.849 387.068 309.655 387.895 309.269 388.609C308.888 389.324 308.325 389.896 307.581 390.323C306.843 390.751 305.935 391.012 304.856 391.105V395.324H302.896V391.105C301.854 391.018 300.96 390.76 300.216 390.332C299.472 389.904 298.897 389.333 298.493 388.618C298.089 387.903 297.887 387.074 297.887 386.131C297.887 385.176 298.077 384.341 298.458 383.626C298.839 382.911 299.401 382.343 300.146 381.921C300.89 381.499 301.815 381.25 302.923 381.174V377.324H304.856ZM302.923 382.782C302.29 382.853 301.757 383.034 301.323 383.327C300.896 383.614 300.573 383.995 300.356 384.47C300.14 384.944 300.031 385.498 300.031 386.131C300.031 386.77 300.137 387.329 300.348 387.81C300.564 388.284 300.887 388.665 301.314 388.952C301.748 389.239 302.284 389.418 302.923 389.488V382.782ZM304.856 382.809V389.488C305.489 389.418 306.017 389.239 306.438 388.952C306.866 388.659 307.186 388.275 307.396 387.801C307.613 387.32 307.722 386.764 307.722 386.131C307.722 385.182 307.476 384.417 306.983 383.837C306.497 383.257 305.788 382.914 304.856 382.809ZM320.844 386.113C320.844 386.922 320.738 387.64 320.527 388.267C320.316 388.894 320.009 389.424 319.604 389.857C319.2 390.285 318.714 390.613 318.146 390.842C317.577 391.064 316.936 391.176 316.221 391.176C315.553 391.176 314.94 391.064 314.384 390.842C313.827 390.613 313.344 390.285 312.934 389.857C312.529 389.424 312.216 388.894 311.993 388.267C311.771 387.64 311.659 386.922 311.659 386.113C311.659 385.041 311.844 384.133 312.213 383.389C312.588 382.639 313.121 382.067 313.812 381.675C314.504 381.282 315.327 381.086 316.282 381.086C317.179 381.086 317.97 381.282 318.655 381.675C319.341 382.067 319.877 382.639 320.264 383.389C320.65 384.139 320.844 385.047 320.844 386.113ZM313.786 386.113C313.786 386.822 313.871 387.429 314.041 387.933C314.217 388.437 314.486 388.823 314.85 389.093C315.213 389.356 315.682 389.488 316.256 389.488C316.83 389.488 317.299 389.356 317.662 389.093C318.025 388.823 318.292 388.437 318.462 387.933C318.632 387.429 318.717 386.822 318.717 386.113C318.717 385.404 318.632 384.804 318.462 384.312C318.292 383.813 318.025 383.436 317.662 383.178C317.299 382.914 316.827 382.782 316.247 382.782C315.392 382.782 314.768 383.069 314.375 383.644C313.982 384.218 313.786 385.041 313.786 386.113ZM330.564 382.896H327.365V391H325.309V382.896H322.127V381.271H330.564V382.896ZM341.059 386.113C341.059 386.922 340.953 387.64 340.742 388.267C340.531 388.894 340.224 389.424 339.819 389.857C339.415 390.285 338.929 390.613 338.36 390.842C337.792 391.064 337.15 391.176 336.436 391.176C335.768 391.176 335.155 391.064 334.599 390.842C334.042 390.613 333.559 390.285 333.148 389.857C332.744 389.424 332.431 388.894 332.208 388.267C331.985 387.64 331.874 386.922 331.874 386.113C331.874 385.041 332.059 384.133 332.428 383.389C332.803 382.639 333.336 382.067 334.027 381.675C334.719 381.282 335.542 381.086 336.497 381.086C337.394 381.086 338.185 381.282 338.87 381.675C339.556 382.067 340.092 382.639 340.479 383.389C340.865 384.139 341.059 385.047 341.059 386.113ZM334.001 386.113C334.001 386.822 334.086 387.429 334.256 387.933C334.432 388.437 334.701 388.823 335.064 389.093C335.428 389.356 335.896 389.488 336.471 389.488C337.045 389.488 337.514 389.356 337.877 389.093C338.24 388.823 338.507 388.437 338.677 387.933C338.847 387.429 338.932 386.822 338.932 386.113C338.932 385.404 338.847 384.804 338.677 384.312C338.507 383.813 338.24 383.436 337.877 383.178C337.514 382.914 337.042 382.782 336.462 382.782C335.606 382.782 334.982 383.069 334.59 383.644C334.197 384.218 334.001 385.041 334.001 386.113ZM349.742 381.271V382.896H345.506V391H343.432V381.271H349.742ZM356.615 381.086C357.77 381.086 358.695 381.508 359.393 382.352C360.096 383.195 360.447 384.449 360.447 386.113C360.447 387.215 360.283 388.144 359.955 388.899C359.633 389.649 359.179 390.218 358.593 390.604C358.013 390.985 357.336 391.176 356.562 391.176C356.07 391.176 355.643 391.111 355.279 390.982C354.916 390.854 354.605 390.687 354.348 390.481C354.09 390.271 353.873 390.042 353.697 389.796H353.574C353.604 390.03 353.63 390.291 353.653 390.578C353.683 390.859 353.697 391.117 353.697 391.352V395.315H351.623V381.271H353.311L353.601 382.615H353.697C353.879 382.34 354.099 382.085 354.356 381.851C354.62 381.616 354.937 381.432 355.306 381.297C355.681 381.156 356.117 381.086 356.615 381.086ZM356.062 382.773C355.493 382.773 355.036 382.888 354.69 383.116C354.351 383.339 354.102 383.676 353.943 384.127C353.791 384.578 353.709 385.144 353.697 385.823V386.113C353.697 386.834 353.771 387.446 353.917 387.95C354.069 388.448 354.318 388.829 354.664 389.093C355.016 389.351 355.49 389.479 356.088 389.479C356.592 389.479 357.008 389.342 357.336 389.066C357.67 388.791 357.919 388.398 358.083 387.889C358.247 387.379 358.329 386.778 358.329 386.087C358.329 385.038 358.142 384.224 357.767 383.644C357.397 383.063 356.829 382.773 356.062 382.773ZM366.652 381.086C367.883 381.086 368.812 381.358 369.438 381.903C370.071 382.448 370.388 383.298 370.388 384.452V391H368.92L368.524 389.62H368.454C368.179 389.972 367.895 390.262 367.602 390.49C367.309 390.719 366.969 390.889 366.582 391C366.201 391.117 365.735 391.176 365.185 391.176C364.604 391.176 364.086 391.07 363.629 390.859C363.172 390.643 362.812 390.314 362.548 389.875C362.284 389.436 362.152 388.879 362.152 388.205C362.152 387.203 362.524 386.45 363.269 385.946C364.019 385.442 365.149 385.164 366.661 385.111L368.349 385.05V384.54C368.349 383.866 368.19 383.386 367.874 383.099C367.563 382.812 367.124 382.668 366.556 382.668C366.069 382.668 365.598 382.738 365.141 382.879C364.684 383.02 364.238 383.192 363.805 383.397L363.137 381.938C363.611 381.687 364.15 381.481 364.754 381.323C365.363 381.165 365.996 381.086 366.652 381.086ZM368.34 386.351L367.083 386.395C366.052 386.43 365.328 386.605 364.912 386.922C364.496 387.238 364.288 387.672 364.288 388.223C364.288 388.703 364.432 389.055 364.719 389.277C365.006 389.494 365.384 389.603 365.853 389.603C366.567 389.603 367.159 389.4 367.628 388.996C368.103 388.586 368.34 387.985 368.34 387.194V386.351ZM379.669 377.324V381.174C380.712 381.262 381.605 381.52 382.35 381.947C383.094 382.369 383.665 382.935 384.063 383.644C384.462 384.353 384.661 385.182 384.661 386.131C384.661 387.068 384.468 387.895 384.081 388.609C383.7 389.324 383.138 389.896 382.394 390.323C381.655 390.751 380.747 391.012 379.669 391.105V395.324H377.709V391.105C376.666 391.018 375.772 390.76 375.028 390.332C374.284 389.904 373.71 389.333 373.306 388.618C372.901 387.903 372.699 387.074 372.699 386.131C372.699 385.176 372.89 384.341 373.271 383.626C373.651 382.911 374.214 382.343 374.958 381.921C375.702 381.499 376.628 381.25 377.735 381.174V377.324H379.669ZM377.735 382.782C377.103 382.853 376.569 383.034 376.136 383.327C375.708 383.614 375.386 383.995 375.169 384.47C374.952 384.944 374.844 385.498 374.844 386.131C374.844 386.77 374.949 387.329 375.16 387.81C375.377 388.284 375.699 388.665 376.127 388.952C376.561 389.239 377.097 389.418 377.735 389.488V382.782ZM379.669 382.809V389.488C380.302 389.418 380.829 389.239 381.251 388.952C381.679 388.659 381.998 388.275 382.209 387.801C382.426 387.32 382.534 386.764 382.534 386.131C382.534 385.182 382.288 384.417 381.796 383.837C381.31 383.257 380.601 382.914 379.669 382.809ZM389.029 381.271V386.236C389.029 386.395 389.023 386.597 389.012 386.843C389.006 387.083 388.994 387.335 388.977 387.599C388.959 387.856 388.941 388.094 388.924 388.311C388.906 388.527 388.892 388.688 388.88 388.794L393.775 381.271H396.289V391H394.312V386.087C394.312 385.829 394.317 385.53 394.329 385.19C394.347 384.851 394.364 384.522 394.382 384.206C394.405 383.89 394.42 383.649 394.426 383.485L389.548 391H387.043V381.271H389.029ZM401.246 381.271V386.236C401.246 386.395 401.24 386.597 401.229 386.843C401.223 387.083 401.211 387.335 401.193 387.599C401.176 387.856 401.158 388.094 401.141 388.311C401.123 388.527 401.108 388.688 401.097 388.794L405.992 381.271H408.506V391H406.528V386.087C406.528 385.829 406.534 385.53 406.546 385.19C406.563 384.851 406.581 384.522 406.599 384.206C406.622 383.89 406.637 383.649 406.643 383.485L401.765 391H399.26V381.271H401.246ZM407.776 377.175C407.718 377.778 407.554 378.3 407.284 378.739C407.021 379.173 406.619 379.507 406.08 379.741C405.541 379.976 404.832 380.093 403.953 380.093C403.045 380.093 402.327 379.981 401.8 379.759C401.272 379.53 400.892 379.199 400.657 378.766C400.423 378.326 400.282 377.796 400.235 377.175H402.116C402.175 377.825 402.345 378.265 402.626 378.493C402.907 378.716 403.361 378.827 403.988 378.827C404.527 378.827 404.958 378.707 405.28 378.467C405.608 378.227 405.805 377.796 405.869 377.175H407.776Z" fill="#828282"/>
</svg>
