<svg width="24" height="24" viewBox="0 0 24 24" fill="none" xmlns="http://www.w3.org/2000/svg">
<path fill-rule="evenodd" clip-rule="evenodd" d="M8.14598 17.9631C8.62281 18.1035 9.12314 17.8307 9.26349 17.3539L10.016 14.7974C11.2655 15.0671 12.5351 15.0671 13.7845 14.7974L14.5367 17.3538C14.677 17.8307 15.1773 18.1035 15.6542 17.9632C16.131 17.8229 16.4038 17.3226 16.2635 16.8457L15.4999 14.2506C16.5344 13.8113 17.5319 13.1828 18.473 12.3741L20.2349 14.3074C20.5697 14.6748 21.139 14.7012 21.5064 14.3664C21.8737 14.0316 21.9001 13.4623 21.5653 13.095L19.7609 11.1151C20.4344 10.3713 21.0711 9.52431 21.6633 8.57677C21.9268 8.15526 21.7986 7.60001 21.3771 7.33657C20.9556 7.07313 20.4004 7.20127 20.1369 7.62277C19.4379 8.74115 18.6845 9.68447 17.8981 10.4582C16.6917 11.6451 15.4106 12.4301 14.1242 12.8446C12.6542 13.3181 11.1465 13.3181 9.67645 12.8446C8.38995 12.4301 7.1089 11.6451 5.90246 10.4582C5.11588 9.68437 4.36229 8.74113 3.66332 7.62277C3.39988 7.20126 2.84462 7.07313 2.42312 7.33657C2.00162 7.60001 1.87348 8.15526 2.13692 8.57677C2.7292 9.52442 3.366 10.3713 4.0396 11.115L2.23497 13.0949C1.90013 13.4623 1.92649 14.0315 2.29384 14.3664C2.6612 14.7012 3.23044 14.6748 3.56527 14.3075L5.32753 12.3741C6.26867 13.1828 7.26617 13.8113 8.30062 14.2506L7.53675 16.8456C7.39639 17.3225 7.66915 17.8228 8.14598 17.9631Z" fill="#8E8E8E"/>
</svg>
